<svg width="13" height="13" viewBox="0 0 13 13" fill="none" xmlns="http://www.w3.org/2000/svg">
<path d="M6.74491 1.0354C7.32735 1.03695 7.62297 1.04006 7.87821 1.04731L7.97865 1.05093C8.09462 1.05507 8.20903 1.06025 8.34726 1.06646C8.89812 1.09235 9.27399 1.17933 9.60378 1.30721C9.94548 1.43871 10.2333 1.6168 10.5212 1.90414C10.7846 2.16286 10.9883 2.47595 11.1181 2.82155C11.246 3.15134 11.333 3.52721 11.3589 4.07858C11.3651 4.2163 11.3703 4.33071 11.3744 4.4472L11.3775 4.54764C11.3853 4.80236 11.3884 5.09798 11.3894 5.68042L11.3899 6.06664V6.74486C11.3912 7.12249 11.3872 7.50012 11.378 7.87764L11.3749 7.97808C11.3708 8.09457 11.3656 8.20898 11.3594 8.3467C11.3335 8.89807 11.2455 9.27342 11.1181 9.60373C10.9883 9.94933 10.7846 10.2624 10.5212 10.5211C10.2625 10.7845 9.94938 10.9882 9.60378 11.1181C9.27399 11.246 8.89812 11.3329 8.34726 11.3588L7.97865 11.3743L7.87821 11.3775C7.62297 11.3847 7.32735 11.3883 6.74491 11.3894L6.35869 11.3899H5.68099C5.30318 11.3912 4.92538 11.3872 4.54769 11.378L4.44725 11.3749C4.32435 11.3702 4.20147 11.3649 4.07863 11.3588C3.52777 11.3329 3.15191 11.246 2.8216 11.1181C2.47619 10.9882 2.16328 10.7844 1.90471 10.5211C1.64116 10.2625 1.43726 9.94937 1.30726 9.60373C1.17938 9.27394 1.0924 8.89807 1.06651 8.3467L1.05098 7.97808L1.04839 7.87764C1.03885 7.50012 1.03454 7.12249 1.03545 6.74486V5.68042C1.03402 5.30279 1.03781 4.92516 1.04684 4.54764L1.05046 4.4472C1.05461 4.33071 1.05978 4.2163 1.066 4.07858C1.09188 3.52721 1.17886 3.15186 1.30674 2.82155C1.43705 2.47581 1.6413 2.16271 1.90523 1.90414C2.16365 1.6409 2.47637 1.43719 2.8216 1.30721C3.15191 1.17933 3.52726 1.09235 4.07863 1.06646C4.21635 1.06025 4.33128 1.05507 4.44725 1.05093L4.54769 1.04783C4.92521 1.03863 5.30284 1.03466 5.68047 1.03592L6.74491 1.0354ZM6.21269 3.62402C5.52614 3.62402 4.86772 3.89675 4.38226 4.38221C3.8968 4.86767 3.62407 5.52609 3.62407 6.21264C3.62407 6.89918 3.8968 7.55761 4.38226 8.04307C4.86772 8.52853 5.52614 8.80126 6.21269 8.80126C6.89923 8.80126 7.55766 8.52853 8.04312 8.04307C8.52858 7.55761 8.80131 6.89918 8.80131 6.21264C8.80131 5.52609 8.52858 4.86767 8.04312 4.38221C7.55766 3.89675 6.89923 3.62402 6.21269 3.62402ZM6.21269 4.65947C6.41666 4.65943 6.61863 4.69957 6.80708 4.7776C6.99553 4.85562 7.16677 4.97 7.31102 5.1142C7.45527 5.2584 7.56971 5.4296 7.64779 5.61803C7.72588 5.80645 7.76609 6.00842 7.76612 6.21238C7.76615 6.41635 7.72601 6.61832 7.64799 6.80677C7.56997 6.99523 7.45559 7.16647 7.31139 7.31071C7.16719 7.45496 6.99599 7.5694 6.80756 7.64748C6.61913 7.72557 6.41717 7.76578 6.21321 7.76581C5.80128 7.76581 5.40623 7.60217 5.11495 7.3109C4.82367 7.01962 4.66004 6.62457 4.66004 6.21264C4.66004 5.80071 4.82367 5.40566 5.11495 5.11438C5.40623 4.8231 5.80128 4.65947 6.21321 4.65947M8.93126 2.84743C8.75962 2.84743 8.59502 2.91562 8.47365 3.03698C8.35229 3.15835 8.2841 3.32295 8.2841 3.49459C8.2841 3.66623 8.35229 3.83083 8.47365 3.9522C8.59502 4.07356 8.75962 4.14174 8.93126 4.14174C9.10289 4.14174 9.2675 4.07356 9.38887 3.9522C9.51023 3.83083 9.57841 3.66623 9.57841 3.49459C9.57841 3.32295 9.51023 3.15835 9.38887 3.03698C9.2675 2.91562 9.10289 2.84743 8.93126 2.84743Z" fill="black"/>
</svg>
