<svg width="11" height="11" viewBox="0 0 11 11" fill="none" xmlns="http://www.w3.org/2000/svg">
<g clip-path="url(#clip0_1544_1476)">
<path d="M3.45215 3.29123C3.50026 3.26072 3.55518 3.24259 3.612 3.23846C3.66883 3.23433 3.72579 3.24433 3.77781 3.26757C3.82983 3.29081 3.87528 3.32657 3.91012 3.37165C3.94496 3.41673 3.9681 3.46974 3.97747 3.52593L4.07411 4.10302C4.08514 4.1687 4.07693 4.23617 4.05047 4.29729C4.02402 4.35841 3.98044 4.41057 3.925 4.44748L3.57916 4.67804C3.4947 4.39183 3.45193 4.09494 3.45215 3.79653V3.29123ZM6.55849 6.90287C6.26008 6.9031 5.96319 6.86032 5.67698 6.77586L5.90754 6.43071C5.94436 6.37515 5.99648 6.33143 6.05761 6.30485C6.11874 6.27827 6.18625 6.26996 6.252 6.28092L6.82909 6.37756C6.88529 6.38693 6.93829 6.41006 6.98337 6.4449C7.02846 6.47974 7.06421 6.5252 7.08745 6.57721C7.11069 6.62923 7.1207 6.68619 7.11657 6.74302C7.11244 6.79984 7.09431 6.85476 7.06379 6.90287H6.55849Z" fill="black"/>
<path fill-rule="evenodd" clip-rule="evenodd" d="M4.43855e-06 5.17726C5.60092e-05 4.0202 0.387697 2.89652 1.10106 1.98554C1.81442 1.07456 2.81239 0.4288 3.93567 0.151324C5.05896 -0.126152 6.24282 -0.0193499 7.29831 0.454684C8.3538 0.928718 9.22008 1.74266 9.75889 2.7666C10.2977 3.79055 10.478 4.96547 10.2709 6.10385C10.0639 7.24222 9.4815 8.27844 8.61668 9.04712C7.75187 9.81579 6.65448 10.2726 5.49968 10.3447C4.34487 10.4167 3.19921 10.0999 2.24555 9.44468L0.49909 10.3179C0.434372 10.35 0.361226 10.3609 0.289954 10.3492C0.218682 10.3375 0.152876 10.3038 0.101805 10.2527C0.0507337 10.2016 0.0169706 10.1358 0.00527125 10.0645C-0.00642807 9.99327 0.00452589 9.92013 0.0365903 9.85541L0.909818 8.10895C0.315966 7.24674 -0.00136886 6.22419 4.43855e-06 5.17726ZM2.91997 2.81643L3.06217 2.72117C3.20602 2.62536 3.37156 2.56708 3.54371 2.55164C3.71586 2.5362 3.88913 2.56411 4.04773 2.6328C4.20633 2.7015 4.34522 2.80881 4.45171 2.94494C4.55821 3.08107 4.62894 3.24169 4.65745 3.41216L4.75409 3.98994C4.7869 4.18677 4.76213 4.38889 4.68278 4.57197C4.60342 4.75506 4.47285 4.91131 4.30678 5.02194L3.85256 5.32429C4.13031 5.81688 4.53726 6.2243 5.02952 6.50263L5.33325 6.04841C5.44382 5.88246 5.59997 5.75197 5.78292 5.67262C5.96586 5.59327 6.16783 5.56843 6.36456 5.6011L6.94234 5.69774C7.11281 5.72625 7.27343 5.79698 7.40956 5.90348C7.54569 6.00997 7.653 6.14885 7.72169 6.30746C7.79039 6.46605 7.81829 6.63933 7.80286 6.81148C7.78742 6.98363 7.72914 7.14917 7.63333 7.29302L7.53806 7.43591C7.5068 7.48439 7.46388 7.52426 7.41323 7.55187C7.36259 7.57949 7.30583 7.59397 7.24814 7.59399H6.55784C6.0592 7.59399 5.56544 7.49577 5.10477 7.30492C4.64409 7.11408 4.22552 6.83436 3.87296 6.48174C3.5204 6.12911 3.24076 5.71049 3.05 5.24978C2.85924 4.78907 2.76111 4.2953 2.7612 3.79666V3.10636C2.76129 3.04861 2.77588 2.99181 2.80362 2.94115C2.83136 2.8905 2.87136 2.84762 2.91997 2.81643Z" fill="black"/>
</g>
<defs>
<clipPath id="clip0_1544_1476">
<rect width="10.3545" height="10.3545" fill="white"/>
</clipPath>
</defs>
</svg>
