<svg xmlns="http://www.w3.org/2000/svg" viewBox="0 0 30 20" role="img" aria-label="China">
  <rect width="30" height="20" fill="#DE2910" />
  <polygon
    fill="#FFDE00"
    points="5,4 6.18,7.76 10.14,7.76 6.88,10.02 8.06,13.78 5,11.52 1.94,13.78 3.12,10.02 -0.14,7.76 3.82,7.76"
  />
  <polygon
    fill="#FFDE00"
    points="11.5,2 11.86,2.98 12.88,2.98 12.07,3.57 12.43,4.55 11.5,3.96 10.57,4.55 10.93,3.57 10.12,2.98 11.14,2.98"
  />
  <polygon
    fill="#FFDE00"
    points="13.2,4.2 13.56,5.18 14.58,5.18 13.77,5.77 14.13,6.75 13.2,6.16 12.27,6.75 12.63,5.77 11.82,5.18 12.84,5.18"
  />
  <polygon
    fill="#FFDE00"
    points="13.2,7.4 13.56,8.38 14.58,8.38 13.77,8.97 14.13,9.95 13.2,9.36 12.27,9.95 12.63,8.97 11.82,8.38 12.84,8.38"
  />
  <polygon
    fill="#FFDE00"
    points="11.5,9.6 11.86,10.58 12.88,10.58 12.07,11.17 12.43,12.15 11.5,11.56 10.57,12.15 10.93,11.17 10.12,10.58 11.14,10.58"
  />
</svg>
